<mxfile host="app.diagrams.net" agent="Mozilla/5.0 (Windows NT 10.0; Win64; x64) AppleWebKit/537.36 (KHTML, like Gecko) Chrome/128.0.0.0 Safari/537.36" version="24.7.15">
  <diagram name="Page-1" id="w9l0LkRyC4haNop6BHb3">
    <mxGraphModel dx="877" dy="346" grid="1" gridSize="10" guides="1" tooltips="1" connect="1" arrows="1" fold="1" page="1" pageScale="1" pageWidth="850" pageHeight="1100" math="0" shadow="0">
      <root>
        <mxCell id="0" />
        <mxCell id="1" parent="0" />
        <mxCell id="LODa-3H9ytelR85rbKeR-2" value="Amazon System" style="ellipse;whiteSpace=wrap;html=1;aspect=fixed;" vertex="1" parent="1">
          <mxGeometry x="385" y="190" width="80" height="80" as="geometry" />
        </mxCell>
        <mxCell id="LODa-3H9ytelR85rbKeR-3" value="Customer" style="rounded=1;whiteSpace=wrap;html=1;" vertex="1" parent="1">
          <mxGeometry x="70" y="190" width="120" height="60" as="geometry" />
        </mxCell>
        <mxCell id="LODa-3H9ytelR85rbKeR-4" value="Seller&amp;nbsp;" style="rounded=1;whiteSpace=wrap;html=1;" vertex="1" parent="1">
          <mxGeometry x="380" y="40" width="120" height="60" as="geometry" />
        </mxCell>
        <mxCell id="LODa-3H9ytelR85rbKeR-5" value="Admin" style="rounded=1;whiteSpace=wrap;html=1;" vertex="1" parent="1">
          <mxGeometry x="660" y="180" width="120" height="60" as="geometry" />
        </mxCell>
        <mxCell id="LODa-3H9ytelR85rbKeR-6" value="" style="endArrow=classic;html=1;rounded=0;exitX=1;exitY=0.25;exitDx=0;exitDy=0;entryX=0.008;entryY=0.334;entryDx=0;entryDy=0;entryPerimeter=0;" edge="1" parent="1" source="LODa-3H9ytelR85rbKeR-3" target="LODa-3H9ytelR85rbKeR-2">
          <mxGeometry width="50" height="50" relative="1" as="geometry">
            <mxPoint x="250" y="240" as="sourcePoint" />
            <mxPoint x="300" y="190" as="targetPoint" />
          </mxGeometry>
        </mxCell>
        <mxCell id="LODa-3H9ytelR85rbKeR-7" value="Search items and&amp;nbsp;&lt;div&gt;place order&lt;/div&gt;" style="edgeLabel;html=1;align=center;verticalAlign=middle;resizable=0;points=[];" vertex="1" connectable="0" parent="LODa-3H9ytelR85rbKeR-6">
          <mxGeometry x="-0.1279" relative="1" as="geometry">
            <mxPoint as="offset" />
          </mxGeometry>
        </mxCell>
        <mxCell id="LODa-3H9ytelR85rbKeR-8" value="" style="endArrow=classic;html=1;rounded=0;entryX=1;entryY=0.833;entryDx=0;entryDy=0;entryPerimeter=0;exitX=0;exitY=1;exitDx=0;exitDy=0;" edge="1" parent="1" source="LODa-3H9ytelR85rbKeR-2" target="LODa-3H9ytelR85rbKeR-3">
          <mxGeometry width="50" height="50" relative="1" as="geometry">
            <mxPoint x="280" y="310" as="sourcePoint" />
            <mxPoint x="330" y="260" as="targetPoint" />
          </mxGeometry>
        </mxCell>
        <mxCell id="LODa-3H9ytelR85rbKeR-9" value="Send invoice and&amp;nbsp;&lt;div&gt;deliver goods&lt;/div&gt;" style="edgeLabel;html=1;align=center;verticalAlign=middle;resizable=0;points=[];" vertex="1" connectable="0" parent="LODa-3H9ytelR85rbKeR-8">
          <mxGeometry x="0.1743" y="1" relative="1" as="geometry">
            <mxPoint as="offset" />
          </mxGeometry>
        </mxCell>
        <mxCell id="LODa-3H9ytelR85rbKeR-10" value="" style="endArrow=classic;html=1;rounded=0;exitX=0;exitY=0.25;exitDx=0;exitDy=0;entryX=0.934;entryY=0.261;entryDx=0;entryDy=0;entryPerimeter=0;" edge="1" parent="1" source="LODa-3H9ytelR85rbKeR-5" target="LODa-3H9ytelR85rbKeR-2">
          <mxGeometry width="50" height="50" relative="1" as="geometry">
            <mxPoint x="620" y="200" as="sourcePoint" />
            <mxPoint x="670" y="150" as="targetPoint" />
          </mxGeometry>
        </mxCell>
        <mxCell id="LODa-3H9ytelR85rbKeR-11" value="Maintain&amp;nbsp;&lt;div&gt;website&lt;/div&gt;" style="edgeLabel;html=1;align=center;verticalAlign=middle;resizable=0;points=[];" vertex="1" connectable="0" parent="LODa-3H9ytelR85rbKeR-10">
          <mxGeometry x="-0.0266" relative="1" as="geometry">
            <mxPoint as="offset" />
          </mxGeometry>
        </mxCell>
        <mxCell id="LODa-3H9ytelR85rbKeR-12" value="" style="endArrow=classic;html=1;rounded=0;exitX=0.954;exitY=0.698;exitDx=0;exitDy=0;exitPerimeter=0;entryX=0;entryY=0.75;entryDx=0;entryDy=0;" edge="1" parent="1" source="LODa-3H9ytelR85rbKeR-2" target="LODa-3H9ytelR85rbKeR-5">
          <mxGeometry width="50" height="50" relative="1" as="geometry">
            <mxPoint x="490" y="280" as="sourcePoint" />
            <mxPoint x="540" y="230" as="targetPoint" />
          </mxGeometry>
        </mxCell>
        <mxCell id="LODa-3H9ytelR85rbKeR-13" value="Gives data&amp;nbsp;&lt;div&gt;and revenue&lt;/div&gt;" style="edgeLabel;html=1;align=center;verticalAlign=middle;resizable=0;points=[];" vertex="1" connectable="0" parent="LODa-3H9ytelR85rbKeR-12">
          <mxGeometry x="-0.0571" y="1" relative="1" as="geometry">
            <mxPoint as="offset" />
          </mxGeometry>
        </mxCell>
        <mxCell id="LODa-3H9ytelR85rbKeR-14" value="" style="endArrow=classic;html=1;rounded=0;exitX=0.153;exitY=0.996;exitDx=0;exitDy=0;exitPerimeter=0;entryX=0;entryY=0;entryDx=0;entryDy=0;" edge="1" parent="1" source="LODa-3H9ytelR85rbKeR-4" target="LODa-3H9ytelR85rbKeR-2">
          <mxGeometry width="50" height="50" relative="1" as="geometry">
            <mxPoint x="420" y="180" as="sourcePoint" />
            <mxPoint x="470" y="130" as="targetPoint" />
          </mxGeometry>
        </mxCell>
        <mxCell id="LODa-3H9ytelR85rbKeR-15" value="List products&amp;nbsp;" style="edgeLabel;html=1;align=center;verticalAlign=middle;resizable=0;points=[];" vertex="1" connectable="0" parent="LODa-3H9ytelR85rbKeR-14">
          <mxGeometry x="-0.0976" relative="1" as="geometry">
            <mxPoint x="4" y="-21" as="offset" />
          </mxGeometry>
        </mxCell>
        <mxCell id="LODa-3H9ytelR85rbKeR-16" value="" style="endArrow=classic;html=1;rounded=0;exitX=0.722;exitY=0.01;exitDx=0;exitDy=0;exitPerimeter=0;entryX=0.75;entryY=1;entryDx=0;entryDy=0;" edge="1" parent="1" source="LODa-3H9ytelR85rbKeR-2" target="LODa-3H9ytelR85rbKeR-4">
          <mxGeometry width="50" height="50" relative="1" as="geometry">
            <mxPoint x="460" y="190" as="sourcePoint" />
            <mxPoint x="510" y="140" as="targetPoint" />
          </mxGeometry>
        </mxCell>
        <mxCell id="LODa-3H9ytelR85rbKeR-17" value="Sends order details&amp;nbsp;&lt;div&gt;and revenue&lt;/div&gt;" style="edgeLabel;html=1;align=center;verticalAlign=middle;resizable=0;points=[];" vertex="1" connectable="0" parent="LODa-3H9ytelR85rbKeR-16">
          <mxGeometry x="-0.199" y="1" relative="1" as="geometry">
            <mxPoint as="offset" />
          </mxGeometry>
        </mxCell>
      </root>
    </mxGraphModel>
  </diagram>
</mxfile>
